<svg width="172" height="238" viewBox="0 0 172 238" fill="none" xmlns="http://www.w3.org/2000/svg">
<rect y="44.1358" width="157" height="193" rx="30" fill="#BEE4FF"/>
<line y1="78.6358" x2="157" y2="78.6358" stroke="#FB3D3D" stroke-width="5"/>
<line y1="99.6358" x2="157" y2="99.6358" stroke="#858585" stroke-width="3"/>
<line y1="138.636" x2="157" y2="138.636" stroke="#858585" stroke-width="3"/>
<line y1="177.636" x2="157" y2="177.636" stroke="#858585" stroke-width="3"/>
<line y1="118.636" x2="157" y2="118.636" stroke="#858585" stroke-width="3"/>
<line y1="157.636" x2="157" y2="157.636" stroke="#858585" stroke-width="3"/>
<line y1="197.636" x2="157" y2="197.636" stroke="#858585" stroke-width="3"/>
<line x1="1.95275" y1="216.616" x2="155.247" y2="216.61" stroke="#858585" stroke-width="3"/>
<line x1="32.452" y1="44.2997" x2="33.7447" y2="236.65" stroke="#FB3D3D" stroke-width="5"/>
<path d="M162.017 34.6616L154.383 45.0603C149.973 39.106 146.019 34.5413 140.947 30.9727C135.824 27.3687 129.624 24.8234 120.783 22.814L127.741 13.3367C130.84 9.11604 135.081 7.4652 139.612 7.55664C144.193 7.64908 149.097 9.53106 153.325 12.4584C157.551 15.3842 161.006 19.2879 162.744 23.3022C164.478 27.304 164.476 31.313 162.017 34.6616Z" fill="#FF7A30" stroke="black" stroke-width="2"/>
<path d="M70.1774 116.897C65.1895 114.279 60.935 112.431 56.7176 111.835L112.793 35.4562C117.122 36.3217 121.206 38.2533 125.997 40.8658L70.1774 116.897Z" fill="#E2B61A" stroke="black" stroke-width="2"/>
<path d="M136.344 47.9616L80.5449 123.589C77.2032 121.111 74.948 119.515 70.8634 117.107L126.518 41.301C130.584 43.637 132.981 45.3869 136.344 47.9616Z" fill="#E2B61A" stroke="black" stroke-width="2"/>
<path d="M90.511 133.818C88.4871 130.505 85.8221 127.717 81.4199 123.921L137.25 47.8764C142.012 51.6649 144.698 54.2018 146.692 57.2943L90.511 133.818Z" fill="#E2B61A" stroke="black" stroke-width="2"/>
<path d="M148.245 54.8844L145.83 58.1738C141.124 51.532 136.814 46.8509 131.597 43.3882C126.385 39.9284 120.333 37.7296 112.216 35.9463L114.752 32.4914C119.463 32.9579 126.276 35.5019 132.728 39.4874C139.259 43.5208 145.243 48.9221 148.245 54.8844Z" fill="#CDCDCD" stroke="black" stroke-width="2"/>
<path d="M151.826 50.006L149.332 53.4031C145.06 47.4574 141.087 43.0892 136.004 39.5836C130.86 36.0357 124.637 33.4118 115.933 30.8829L118.184 27.8173C120.504 28.0244 123.428 28.8779 126.631 30.2278C130.079 31.6811 133.776 33.6782 137.274 35.9539C140.773 38.2301 144.05 40.7715 146.666 43.3052C149.109 45.6712 150.917 47.9755 151.826 50.006Z" fill="#CDCDCD" stroke="black" stroke-width="2"/>
<path d="M154.858 45.876L152.534 49.0424C148.185 43.1917 144.173 38.88 139.089 35.3808C133.944 31.8399 127.758 29.1691 119.125 26.5361L121.216 23.6869C123.505 23.9399 126.4 24.828 129.578 26.1996C133.009 27.6806 136.699 29.6933 140.198 31.9716C143.697 34.2501 146.986 36.7813 149.623 39.2915C152.079 41.6285 153.912 43.8934 154.858 45.876Z" fill="#CDCDCD" stroke="black" stroke-width="2"/>
<path d="M53.954 150.748C52.089 149.523 51.0582 146.764 50.7656 142.879C50.4787 139.066 50.9242 134.484 51.6625 130.032C52.3991 125.591 53.4185 121.328 54.2553 118.171C54.6734 116.594 55.0452 115.296 55.3121 114.393C55.4371 113.971 55.5391 113.635 55.612 113.397C57.6407 112.504 60.5099 112.33 63.8417 112.903C67.3583 113.508 71.2538 114.922 74.9328 117.002C82.1634 121.089 88.3224 127.598 89.3295 135.25C89.1349 135.399 88.8783 135.593 88.5659 135.827C87.7901 136.409 86.6702 137.234 85.2974 138.206C82.5497 140.151 78.7987 142.679 74.7723 145.017C70.7359 147.362 66.4695 149.489 62.6835 150.664C58.8232 151.861 55.8034 151.963 53.954 150.748Z" fill="#E7C89F" stroke="black" stroke-width="2"/>
<path d="M53.9158 150.463C52.9929 149.857 52.3124 148.764 51.8536 147.304C51.3991 145.858 51.1987 144.168 51.1428 142.526C51.0871 140.891 51.1758 139.345 51.2793 138.204C51.3279 137.668 51.3796 137.224 51.4204 136.905C51.6323 136.86 51.9091 136.834 52.263 136.846C52.8992 136.868 53.6856 137.008 54.5867 137.269C56.3867 137.79 58.5142 138.755 60.5808 140C62.6458 141.245 64.6069 142.744 66.092 144.308C67.3523 145.635 68.205 146.941 68.5521 148.126C68.2547 148.261 67.8723 148.429 67.4225 148.618C66.2809 149.097 64.7161 149.701 63.0129 150.207C61.3029 150.716 59.4927 151.116 57.8503 151.207C56.1892 151.299 54.8382 151.069 53.9158 150.463Z" fill="#65656F" stroke="black" stroke-width="2"/>
</svg>
